<svg width="100" height="97" viewBox="0 0 100 97" fill="none" xmlns="http://www.w3.org/2000/svg">
<path fill-rule="evenodd" clip-rule="evenodd" d="M36.8282 26.0328C36.6943 25.6733 36.343 25.4338 35.9495 25.4338H28.7057C28.3126 25.4338 27.9615 25.6728 27.8274 26.0318L11.7365 69.081C11.6325 69.3592 11.6747 69.6693 11.8496 69.9118C12.0245 70.1542 12.3101 70.2986 12.6149 70.2986H21.0462C21.4435 70.2986 21.7973 70.0546 21.9284 69.6902L25.569 59.5666H38.9708L42.669 69.6943C42.8012 70.0565 43.154 70.2986 43.5496 70.2986H51.981C52.2855 70.2986 52.571 70.1544 52.7459 69.9122C52.9208 69.67 52.9633 69.3602 52.8597 69.082L36.8282 26.0328ZM36.8489 51.8697H27.5856L32.3099 38.6738L36.8489 51.8697Z" fill="black"/>
<path fill-rule="evenodd" clip-rule="evenodd" d="M84.7744 62.0699C84.888 61.8301 84.8885 61.5542 84.7759 61.3141C84.6632 61.0739 84.4486 60.8932 84.1879 60.8192L77.3596 58.8789C76.8936 58.7465 76.4008 58.9829 76.2257 59.423C75.8193 60.4446 73.6839 63.1473 69.7347 63.1473C66.7091 63.1473 64.9459 61.6924 63.8833 60.067C63.178 58.9881 62.791 57.8412 62.5918 57.02H85.5287C85.9616 57.02 86.3379 56.7311 86.4379 56.3218C86.4766 56.1631 86.502 55.9135 86.5208 55.7015C86.5422 55.4602 86.5626 55.1695 86.5802 54.877C86.615 54.2989 86.6412 53.675 86.6412 53.3838C86.6412 47.6622 84.4663 43.3357 81.1967 40.4464C77.9436 37.5718 73.6598 36.1658 69.4972 36.1658C63.6779 36.1658 59.3048 38.4692 56.4024 41.8406C53.5186 45.1904 52.1157 49.557 52.1157 53.6869C52.1157 62.914 58.9229 70.9049 69.4379 70.9049C79.394 70.9049 83.5411 64.6739 84.7744 62.0699ZM82.7259 63.713C83.0304 63.2872 83.2851 62.8819 83.4951 62.5139C83.6679 62.211 83.8103 61.9334 83.9254 61.6904C83.6706 62.2285 83.2811 62.9367 82.7259 63.713ZM62.6458 59.7913C62.1024 58.7637 61.7963 57.7524 61.634 57.02C61.5727 56.7431 61.5318 56.5061 61.5064 56.3231C61.5987 56.99 61.897 58.3752 62.6458 59.7913ZM61.3919 50.525C61.414 50.3236 61.442 50.125 61.4756 49.9294C61.7282 48.4581 62.3009 47.1556 63.1086 46.0864C62.1935 47.2977 61.5799 48.8085 61.3919 50.525ZM76.4411 49.9294H62.4239C63.1211 46.2376 66.0265 43.8627 69.3785 43.8627C72.6772 43.8627 75.6701 45.949 76.4411 49.9294Z" fill="black"/>
<path fill-rule="evenodd" clip-rule="evenodd" d="M1.40164 0C0.627535 0 0 0.609645 0 1.36168V94.8637C0 95.6157 0.627535 96.2253 1.40164 96.2253H97.6476C98.4217 96.2253 99.0492 95.6157 99.0492 94.8637V1.36168C99.0492 0.609645 98.4217 0 97.6476 0H1.40164ZM90.2926 87.7184H8.75663V8.50699H90.2926V87.7184Z" fill="black"/>
</svg>
