<svg width="100" height="98" viewBox="0 0 100 98" fill="none" xmlns="http://www.w3.org/2000/svg">
<path fill-rule="evenodd" clip-rule="evenodd" d="M44.8599 25.3086C45.248 25.3086 45.5957 25.541 45.7334 25.8936L63.6406 71.6396C63.6772 71.7339 63.6973 71.832 63.7007 71.9302C63.7075 72.1226 63.6514 72.3149 63.5361 72.4775C63.3618 72.7231 63.0742 72.8701 62.7671 72.8701H53.3491C53.291 72.8701 53.2339 72.8647 53.1787 72.855L53.1523 72.8496C53.1133 72.8413 53.0757 72.8311 53.0386 72.8184C52.7822 72.731 52.5723 72.5361 52.4736 72.2793L48.3232 61.4658H33.1768L29.0903 72.2749C29.0347 72.4219 28.9429 72.5488 28.8267 72.647C28.7627 72.7007 28.6914 72.7461 28.6152 72.7817C28.4922 72.8389 28.3555 72.8701 28.2134 72.8701H18.7954C18.6694 72.8701 18.5464 72.8452 18.4336 72.7988L18.3818 72.7759L18.3467 72.7578C18.3003 72.7334 18.2554 72.7046 18.2139 72.6724C18.1426 72.6172 18.0791 72.5518 18.0259 72.4771C17.8516 72.231 17.813 71.9175 17.9229 71.6387L35.896 25.8926C36.0342 25.5405 36.3813 25.3086 36.769 25.3086H44.8599ZM35.3862 53.4004H45.9956L40.7969 39.0225L35.3862 53.4004Z" fill="black"/>
<path d="M66.1431 38.2002C66.1431 37.6987 66.5615 37.2925 67.0776 37.2925H75.9644C76.4805 37.2925 76.8989 37.6987 76.8989 38.2002V71.9619C76.8989 72.1465 76.8423 72.3179 76.7451 72.4614C76.6665 72.5771 76.5615 72.6743 76.4385 72.7446C76.2993 72.8242 76.1372 72.8696 75.9644 72.8696H67.0776C66.5615 72.8696 66.1431 72.4634 66.1431 71.9619V38.2002Z" fill="black"/>
<path d="M66.1431 24.9272C66.1431 24.4263 66.5615 24.0195 67.0776 24.0195H75.9644C76.4805 24.0195 76.8989 24.4263 76.8989 24.9272V33.4966C76.8989 33.7153 76.8193 33.916 76.6865 34.0728C76.5151 34.2754 76.2554 34.4048 75.9644 34.4048H67.0776C66.5615 34.4048 66.1431 33.998 66.1431 33.4966V24.9272Z" fill="black"/>
<path fill-rule="evenodd" clip-rule="evenodd" d="M0.574219 2.23291C0.574219 1.48096 1.20166 0.871094 1.97607 0.871094H98.2217C98.9961 0.871094 99.6235 1.48096 99.6235 2.23291V95.7349C99.6235 96.4868 98.9961 97.0967 98.2217 97.0967H1.97607C1.20166 97.0967 0.574219 96.4868 0.574219 95.7349V2.23291ZM9.33105 88.5894H90.8667V9.37793H9.33105V88.5894Z" fill="black"/>
</svg>
