<svg width="97" height="107" viewBox="0 0 97 107" fill="none" xmlns="http://www.w3.org/2000/svg">
<path d="M72.8465 35.271C72.8455 35.2827 72.8363 35.292 72.8245 35.2939C72.8128 35.2959 72.8011 35.29 72.7962 35.2788L51.4422 44.0474C51.138 44.1724 50.9647 44.4956 51.0282 44.8188C51.0916 45.1421 51.3743 45.375 51.7034 45.375H68.3128C68.5814 45.375 68.846 45.4097 69.1014 45.4766C69.6854 45.6299 70.2181 45.9512 70.6292 46.4097C71.22 47.0679 71.5037 47.9468 71.41 48.8271L68.8148 73.2231C68.6873 74.4199 67.8846 75.437 66.7518 75.8364L49.1214 82.0522C48.7503 82.1831 48.3607 82.2417 47.9725 82.2275C47.6663 82.2163 47.3617 82.1597 47.0682 82.0576L29.5208 75.9663C28.3807 75.5708 27.5711 74.5508 27.4432 73.3486L26.2664 62.3003C26.2371 62.0244 26.264 61.7485 26.3421 61.4883C26.4285 61.2021 26.577 60.9346 26.7806 60.7075C27.1702 60.2734 27.7244 60.0259 28.307 60.0259H33.1898C34.2391 60.0259 35.119 60.8188 35.2303 61.8643L35.952 68.6553L48.1019 72.8872L60.3075 68.6167L61.8006 54.5322H27.2899C26.244 54.5322 25.3651 53.7432 25.2503 52.7017L24.5936 46.7319C24.493 45.8213 25.0057 44.9546 25.8504 44.6055L47.9378 35.4805C48.0858 35.4194 48.1956 35.3018 48.2503 35.1606C48.2884 35.0625 48.2996 34.9536 48.2782 34.8442C48.2254 34.5781 47.9925 34.3862 47.722 34.3862H24.4671C23.7669 34.3862 23.18 33.8564 23.1068 33.1592L22.4344 26.7432C22.3939 26.3569 22.5189 25.9717 22.7782 25.6831C23.0374 25.3945 23.4071 25.2295 23.7943 25.2295H72.4525C72.8421 25.2295 73.2132 25.396 73.4725 25.687C73.7323 25.9785 73.8553 26.3667 73.8114 26.7549L72.8465 35.271Z" fill="black"/>
<path fill-rule="evenodd" clip-rule="evenodd" d="M44.6756 106.559L14.2655 97.9775C12.0311 97.3472 10.3939 96.02 9.33773 94.7451C8.28157 93.4702 7.28548 91.6182 7.0804 89.312L0.0379212 10.1909C-0.450848 4.7002 3.847 0 9.36019 0H86.7796C92.2801 0 96.5931 4.6875 96.1033 10.1919L89.0604 89.3198L89.0594 89.3276C88.8504 91.6279 87.8548 93.4766 86.7962 94.752C85.7376 96.0269 84.098 97.3521 81.8602 97.979L51.2264 106.564C49.9735 106.916 48.7899 106.993 47.9481 106.992C47.408 106.991 46.7288 106.958 45.9818 106.841C45.5633 106.776 45.1239 106.685 44.6756 106.559ZM48.9569 98.4668L79.5921 89.8809C79.8104 89.8198 80.0189 89.6909 80.1942 89.522C80.4617 89.2637 80.6527 88.9116 80.6844 88.5664L87.7264 9.44434C87.7777 8.87305 87.3529 8.40967 86.7796 8.40967H9.36019C8.78743 8.40967 8.3636 8.87305 8.41439 9.44434L15.4569 88.5664C15.5076 89.1377 15.9959 89.7275 16.5482 89.8833L46.9578 98.4644C47.5101 98.6201 48.4051 98.6211 48.9569 98.4668Z" fill="black"/>
</svg>
