<svg width="100" height="97" viewBox="0 0 100 97" fill="none" xmlns="http://www.w3.org/2000/svg">
<path d="M38.4092 80.3389C43.8369 80.3389 48.2417 76.1357 48.2417 70.957V61.5747H38.4092C32.9814 61.5747 28.5767 65.7778 28.5767 70.957C28.5767 76.1357 32.9814 80.3389 38.4092 80.3389Z" fill="black"/>
<path d="M38.4092 40.3936C32.9814 40.3936 28.5767 44.5967 28.5767 49.7754C28.5767 54.9546 32.9814 59.1577 38.4092 59.1577H48.2417V51.2363C48.9775 55.7227 53.0488 59.1577 57.9556 59.1577C63.3833 59.1577 67.7886 54.9546 67.7886 49.7754C67.7886 44.5967 63.3833 40.3936 57.9556 40.3936C53.0488 40.3936 48.9775 43.8286 48.2417 48.3145V40.3936H38.4092Z" fill="black"/>
<path d="M28.5771 29.3125C28.5771 24.1338 32.9819 19.9302 38.4097 19.9302H57.9556C63.3833 19.9302 67.7886 24.1338 67.7886 29.3125C67.7886 34.4917 63.3833 38.6948 57.9556 38.6948H38.4097C32.9819 38.6948 28.5771 34.4917 28.5771 29.3125Z" fill="black"/>
<path fill-rule="evenodd" clip-rule="evenodd" d="M1.40186 0C0.627441 0 0 0.609863 0 1.36182V94.8638C0 95.6157 0.627441 96.2256 1.40186 96.2256H97.6475C98.0317 96.2256 98.3799 96.0752 98.6333 95.832C98.8901 95.5854 99.0493 95.2427 99.0493 94.8638V1.36182C99.0493 0.609863 98.4219 0 97.6475 0H1.40186ZM90.2925 87.7183H8.75684V8.50684H90.2925V87.7183Z" fill="black"/>
</svg>
