<svg width="98" height="108" viewBox="0 0 98 108" fill="none" xmlns="http://www.w3.org/2000/svg">
<path d="M73.3158 25.4858H25.4178C24.8441 25.4858 24.4198 25.9497 24.4696 26.5225L26.9442 54.6426C26.9554 54.769 26.9891 54.8901 27.0404 55.002C27.0907 55.1118 27.1585 55.2129 27.2401 55.3013C27.3817 55.4556 27.5633 55.5723 27.765 55.6323C27.8646 55.6621 27.9691 55.6782 28.0755 55.6782H60.596C61.1702 55.6782 61.5911 56.1411 61.536 56.7129L60.492 67.5317C60.47 67.7598 60.3783 67.9897 60.2406 68.1934C60.033 68.5005 59.721 68.7476 59.3875 68.8369L50.2586 71.293C49.7044 71.4429 48.805 71.4414 48.2508 71.292L39.1776 68.8379C38.8582 68.752 38.5589 68.521 38.3529 68.231C38.2015 68.0181 38.0999 67.7734 38.0775 67.5312L37.5345 61.6865C37.4813 61.1143 36.972 60.6509 36.3978 60.6509H28.5838C28.325 60.6509 28.096 60.7451 27.9261 60.9014C27.7196 61.0913 27.6014 61.373 27.6263 61.6875L28.7054 75.3325C28.7513 75.9043 29.2366 76.4932 29.7899 76.6455L48.2518 81.7461C48.8055 81.8989 49.305 82.0225 49.367 82.0225C49.4032 82.0225 49.4354 82.0181 49.4559 82.0117C49.471 82.0068 49.4803 82.001 49.4803 81.9946C49.4803 81.98 49.9295 81.8438 50.4832 81.6909L68.7747 76.646C69.3294 76.4932 69.8201 75.9053 69.8729 75.3335L72.5101 46.6499C72.5623 46.0781 72.139 45.6143 71.5648 45.6143H37.2352C36.9251 45.6143 36.6361 45.4795 36.4281 45.2656C36.2503 45.0825 36.1312 44.8413 36.1092 44.5776L35.4329 36.416C35.3851 35.8433 35.8128 35.3794 36.3866 35.3794H72.411C72.6878 35.3794 72.9495 35.2715 73.1522 35.0957C73.3695 34.9072 73.5189 34.6401 73.5457 34.3438L74.2611 26.5215C74.3128 25.9497 73.89 25.4858 73.3158 25.4858Z" fill="black"/>
<path fill-rule="evenodd" clip-rule="evenodd" d="M45.7103 106.679L15.2596 98.0859C13.0247 97.4556 11.3875 96.1284 10.3309 94.853C9.27473 93.5776 8.27815 91.7256 8.07307 89.4189L1.02132 10.1924C0.532546 4.70068 4.83089 0 10.345 0H87.8675C93.369 0 97.6824 4.68799 97.1922 10.1934L90.14 89.4268L90.1395 89.4346C89.9305 91.7349 88.9344 93.5845 87.8753 94.8599C86.8167 96.1348 85.1766 97.4604 82.9388 98.0879L52.264 106.685C51.0106 107.036 49.8265 107.113 48.9842 107.112C48.1414 107.111 46.9598 107.031 45.7103 106.679ZM49.994 98.5869L80.6702 89.9897C81.0086 89.895 81.3226 89.6382 81.5277 89.3218C81.658 89.1206 81.744 88.8955 81.764 88.6733L88.8158 9.44531C88.867 8.87354 88.4417 8.40967 87.8675 8.40967H10.345C9.77132 8.40967 9.347 8.87354 9.39778 9.44531L16.4495 88.6733C16.5003 89.2451 16.9896 89.8359 17.5423 89.9917L47.9925 98.5845C48.5457 98.7407 49.4422 98.7417 49.994 98.5869Z" fill="black"/>
</svg>
