<svg width="115" height="108" viewBox="0 0 115 108" fill="none" xmlns="http://www.w3.org/2000/svg">
<path d="M84.4663 49.0703L84.877 50.2783L94.8501 42.9683L94.25 42.1934C91.9722 39.2495 87.4414 35.2612 79.4688 34.6836C72.9697 34.2129 68.6865 37.2109 66.4385 41.5078C64.228 45.7334 64.0127 51.1465 65.3882 55.6108C66.1284 58.0146 67.8594 59.874 69.8999 61.3755C71.9414 62.8774 74.3833 64.0859 76.6714 65.1523C77.126 65.3638 77.5723 65.5693 78.0088 65.77C79.8091 66.5981 81.4336 67.3452 82.6997 68.1196C83.4805 68.5972 84.061 69.0488 84.439 69.4844C84.6777 69.7598 84.8174 70.0063 84.8862 70.2344C84.9238 70.3589 84.9404 70.4775 84.9404 70.5918C84.9404 71.6235 84.7964 72.4292 84.522 73.0635C84.2964 73.5854 83.9819 73.9907 83.5869 74.3101C82.6587 75.0601 81.0874 75.501 78.5273 75.501C76.2793 75.501 74.4995 74.2095 73.2266 72.7935C72.5972 72.0933 72.1172 71.3896 71.7949 70.8599C71.6343 70.5957 71.5142 70.3774 71.4351 70.228L71.3486 70.0586L71.3291 70.0186L71.3252 70.0098L70.8853 69.0615L60.9761 75.1021L61.4458 75.9106C64.0371 80.3716 69.334 86.4473 78.8774 86.4473C86.2969 86.4473 90.8184 84.4941 93.5869 81.6128C96.335 78.7529 97.2021 75.1318 97.647 72.1533C98.6094 65.7104 93.6387 58.7891 85.9966 56.2046C82.3188 54.9609 79.4351 53.7583 77.6455 52.397C76.7612 51.7241 76.2085 51.0596 75.9341 50.3975C75.6699 49.7598 75.6294 49.0444 75.9155 48.1738C76.4443 46.563 78.1104 45.6406 80.0112 45.7373C81.8799 45.832 83.7354 46.9199 84.4663 49.0703Z" fill="black"/>
<path d="M58.1182 35.5688H46.2759V70.5918C46.2759 72.333 45.542 73.5972 44.479 74.3701C43.397 75.1567 41.916 75.4731 40.3965 75.165C40.1191 75.1089 39.8545 75.0244 39.6021 74.917C39.1582 74.7275 38.7534 74.4678 38.3867 74.1646C37.8955 73.7588 37.4736 73.2764 37.1191 72.7847C36.9292 72.5205 36.7637 72.2607 36.6226 72.02C36.4834 71.7832 36.3682 71.5645 36.2764 71.3779C36.1841 71.1909 36.1167 71.0386 36.0728 70.9355L36.0259 70.8208L36.0156 70.7949L36.0142 70.791L35.5991 69.6675L26.0435 76.2002L26.1777 76.8271L27.0913 76.6265C26.1777 76.8271 26.1782 76.8286 26.1782 76.8286L26.1792 76.8335L26.1812 76.8428L26.1831 76.8501L26.1875 76.8701L26.2095 76.9585L26.2461 77.0933C26.2598 77.1431 26.2764 77.1992 26.2959 77.2612C26.3306 77.373 26.3735 77.5039 26.4263 77.6514C26.4941 77.8398 26.5776 78.0557 26.6807 78.2935C27.0474 79.1396 27.6567 80.2671 28.6362 81.416C30.6143 83.7373 34.0405 86.0747 39.8037 86.4458C51.1807 87.1787 58.1182 80.1831 58.1182 73.7866V35.5688Z" fill="black"/>
<path fill-rule="evenodd" clip-rule="evenodd" d="M5.58838 57.5259C5.58838 57.8169 5.7207 58.0923 5.94727 58.272C6.17383 58.4517 6.46924 58.5151 6.74854 58.4453C8.07031 58.1128 9.45361 57.936 10.8789 57.936C11.6099 57.936 12.3296 57.9829 13.0356 58.0728C13.3018 58.1064 13.5698 58.0229 13.771 57.8433C13.9722 57.6636 14.0874 57.4048 14.0874 57.1328V8.61963H106.501V99.3804H14.0874V93.459C14.0874 93.187 13.9722 92.9282 13.771 92.7485C13.6719 92.6597 13.5562 92.5942 13.4326 92.5552C13.3057 92.5146 13.1704 92.502 13.0356 92.519C12.667 92.5659 12.2949 92.6011 11.9194 92.6235C11.5752 92.6445 11.2285 92.6553 10.8789 92.6553C9.45361 92.6553 8.07031 92.4785 6.74854 92.1465C6.54395 92.0947 6.33057 92.1157 6.14209 92.2012C6.07324 92.2324 6.00781 92.272 5.94727 92.3198C5.7207 92.499 5.58838 92.7744 5.58838 93.0659V100.328C5.58838 104.564 8.97363 108 13.1523 108H107.436C111.614 108 115 104.564 115 100.328V7.67236C115 3.43604 111.614 0 107.436 0H13.1523C8.97363 0 5.58838 3.43604 5.58838 7.67236V57.5259ZM12.2178 57.0386C12.4121 57.0532 12.606 57.0708 12.7993 57.0913L12.9023 57.1025C12.6758 57.0767 12.4468 57.0557 12.2178 57.0386Z" fill="black"/>
<path d="M10.9072 86.2705C16.9321 86.2705 21.8145 81.3159 21.8145 75.207C21.8145 69.0977 16.9321 64.1436 10.9072 64.1436C4.88232 64.1436 0 69.0977 0 75.207C0 81.3159 4.88232 86.2705 10.9072 86.2705Z" fill="black"/>
</svg>
