<svg width="100" height="98" viewBox="0 0 100 98" fill="none" xmlns="http://www.w3.org/2000/svg">
<path fill-rule="evenodd" clip-rule="evenodd" d="M29.9858 55.9927V72.2222C29.9858 72.3296 29.9473 72.4287 29.8828 72.5063C29.7969 72.6099 29.6655 72.6763 29.5186 72.6763H18.7363C18.4785 72.6763 18.269 72.4727 18.269 72.2222V26.0317C18.269 25.8101 18.4341 25.6206 18.6587 25.584C22.0381 25.0322 26.7827 24.605 33.4482 24.605C40.2192 24.605 45.1323 25.8442 48.457 28.4541C51.6777 30.8975 53.79 34.9282 53.79 39.6431C53.79 44.3203 52.1904 48.3457 49.1943 51.0859C45.3823 54.5884 39.7261 56.1221 33.229 56.1221C32.043 56.1221 30.9253 56.0884 29.9858 55.9927ZM42.0796 39.8999C42.0679 37.8628 41.3418 36.2842 40.0142 35.2061C38.6758 34.1187 36.668 33.4946 34.0117 33.4946C32.1401 33.4946 30.793 33.6514 30.0049 33.8208V46.9092C30.8193 47.0425 31.8135 47.0923 33.1606 47.0923C35.981 47.0923 38.2104 46.3989 39.7256 45.1743C41.23 43.959 42.0796 42.1816 42.0796 39.8999Z" fill="black"/>
<path d="M55.6157 62.5625C55.7524 62.5073 55.9082 62.5181 56.0352 62.5923C56.9946 63.1519 58.4902 63.7798 60.1509 64.2676C61.8115 64.7554 63.6035 65.0933 65.1562 65.0933C65.3623 65.0933 65.5591 65.0889 65.7471 65.0796C65.8418 65.0752 65.9346 65.0698 66.0249 65.063C66.1348 65.0547 66.2412 65.0454 66.3442 65.0342C66.4346 65.0244 66.5225 65.0137 66.6079 65.002C66.8047 64.9746 66.9888 64.9414 67.1606 64.9028C67.2788 64.8765 67.3911 64.8477 67.498 64.8164C67.5996 64.7866 67.6958 64.7549 67.7876 64.7212C68.042 64.6274 68.2593 64.519 68.4429 64.3979C68.77 64.1821 69.002 63.9199 69.1465 63.6099C69.272 63.3413 69.332 63.0371 69.332 62.6958C69.332 62.4834 69.314 62.2944 69.2764 62.1235C69.2456 61.9839 69.2017 61.856 69.144 61.7363C69.0708 61.5835 68.9702 61.4336 68.832 61.2847C68.7861 61.2349 68.7358 61.1851 68.6812 61.1353C68.6162 61.0762 68.5449 61.0171 68.4663 60.9575C67.7607 60.4214 66.5498 59.9023 64.519 59.2354C60.8481 58.0425 58.2617 56.4624 56.5996 54.6304C54.9312 52.7915 54.2124 50.7178 54.251 48.5879C54.2534 41.9458 60.1245 37.0249 68.9419 37.0249C73.0884 37.0249 76.8042 37.936 79.0259 39.0186C79.2227 39.1143 79.3237 39.3306 79.269 39.5371L77.3413 46.832C77.3354 46.854 77.3276 46.8755 77.3188 46.8965C77.3052 46.9277 77.2881 46.9575 77.2676 46.9849C77.2505 47.0083 77.231 47.0303 77.209 47.0503C77.1704 47.0854 77.126 47.1143 77.0762 47.1353C76.9448 47.1909 76.7939 47.1851 76.667 47.1187C75.1196 46.3081 72.2119 45.2217 69.3115 45.2217C68.0449 45.2217 67.1196 45.4741 66.5239 45.8789C65.9492 46.2705 65.6484 46.8247 65.6484 47.5464C65.6484 47.5977 65.6499 47.6475 65.6533 47.6958C65.6582 47.7651 65.6665 47.8315 65.6782 47.8955L65.6924 47.9663C65.7002 48.0015 65.7095 48.0356 65.7197 48.0688C65.7295 48.1001 65.7397 48.1309 65.751 48.1611C65.7812 48.2417 65.8184 48.3188 65.8628 48.3936C66.0117 48.644 66.2573 48.8979 66.6558 49.1685C67.4673 49.7192 68.8135 50.2773 70.9541 51.0146C74.3208 52.1318 76.7646 53.5366 78.3755 55.3384C79.9971 57.1519 80.7407 59.3276 80.7798 61.9111V61.918C80.7798 65.2183 79.4307 68.1006 76.7725 70.147C74.125 72.1846 70.2222 73.3628 65.1562 73.3628C60.5239 73.3628 56.3628 72.3794 53.6377 70.9365C53.4512 70.8379 53.3569 70.6289 53.4082 70.4287L55.3413 62.8721C55.3604 62.7974 55.3984 62.73 55.4507 62.6748C55.4673 62.6572 55.4854 62.6406 55.5044 62.626C55.5381 62.6001 55.5752 62.5786 55.6157 62.5625Z" fill="black"/>
<path fill-rule="evenodd" clip-rule="evenodd" d="M0 2.23291C0 1.48096 0.627441 0.871094 1.40186 0.871094H97.6475C98.4219 0.871094 99.0493 1.48096 99.0493 2.23291V95.7349C99.0493 96.4868 98.4219 97.0967 97.6475 97.0967H1.40186C0.627441 97.0967 0 96.4868 0 95.7349V2.23291ZM8.75684 88.5894H90.2925V9.37793H8.75684V88.5894Z" fill="black"/>
</svg>
