<svg width="119" height="105" viewBox="0 0 119 105" fill="none" xmlns="http://www.w3.org/2000/svg">
<path d="M70.8931 52.5582C70.8931 58.7774 65.7949 63.8243 59.5 63.8243C53.2056 63.8243 48.1069 58.7774 48.1069 52.5582C48.1069 46.3389 53.2056 41.292 59.5 41.292C65.7949 41.292 70.8931 46.3389 70.8931 52.5582Z" fill="black"/>
<path fill-rule="evenodd" clip-rule="evenodd" d="M61.8569 94.5459C61.0747 93.8711 60.3062 93.1812 59.5518 92.4771C59.1177 92.8785 58.6787 93.2745 58.2344 93.6656C52.8867 98.3624 47.4902 101.739 42.5757 103.475C37.6768 105.205 33.1162 105.348 29.5981 103.334C26.2183 101.398 24.1455 97.6285 23.2256 92.837C22.3027 88.0323 22.5083 82.0669 23.8076 75.4986C23.9087 74.9893 24.0151 74.4805 24.127 73.9732C24.2373 73.4727 24.3521 72.9737 24.4717 72.4756C23.2607 72.1221 22.0835 71.75 20.9463 71.358C14.6709 69.1939 9.47266 66.398 5.8252 63.2164C2.18506 60.0411 0 56.397 0 52.5582C0 48.5977 2.33887 44.771 6.18262 41.4375C10.0386 38.0928 15.5112 35.149 22.0508 32.9385C22.8301 32.6763 23.6143 32.4278 24.4028 32.1944C24.2695 31.6402 24.1426 31.0845 24.022 30.5269C23.9028 29.9742 23.7896 29.4205 23.6826 28.8658C22.4429 22.4087 22.2944 16.5577 23.2588 11.8438C24.2207 7.14018 26.3203 3.44682 29.6841 1.52788C33.1553 -0.452102 37.6772 -0.358841 42.5171 1.26909C47.373 2.90239 52.6851 6.12065 57.8872 10.6182C58.4966 11.1451 59.1064 11.6949 59.7168 12.2642C60.5513 11.4859 61.4033 10.7261 62.2725 9.98442C67.3101 5.69682 72.3604 2.648 76.9722 1.11919C81.5742 -0.406204 85.8599 -0.451126 89.2212 1.47368C92.689 3.45903 94.8647 7.37895 95.8555 12.3379C96.8496 17.314 96.6836 23.4722 95.3418 30.1753C95.1914 30.9288 95.0225 31.6924 94.8379 32.4654L95.1211 32.5518C95.4834 32.6636 95.8418 32.7779 96.1963 32.8941C102.985 35.1187 108.644 38.0459 112.625 41.3833C116.593 44.7095 119 48.5406 119 52.5582C119 56.419 116.741 60.0821 113.009 63.271C109.267 66.4683 103.944 69.2818 97.5454 71.4605C97.3154 71.5386 97.085 71.6158 96.854 71.6915L96.5356 71.7955C95.8877 72.0059 95.2368 72.2081 94.5835 72.4019C94.7188 72.9742 94.8462 73.5479 94.9668 74.1231C96.4102 81.0523 96.6729 87.3628 95.7388 92.44C94.8081 97.5 92.6562 101.478 89.1353 103.485C85.7515 105.416 81.4126 105.31 76.7549 103.705C72.085 102.095 66.9614 98.9395 61.8569 94.5459ZM107.469 45.983C104.364 43.5933 99.8276 41.2505 94.1636 39.3809L94.0337 39.3384C93.6841 39.2242 93.3291 39.1114 92.9688 39.001C91.543 43.3145 89.6875 47.8604 87.459 52.5381C89.584 57.1031 91.3643 61.5821 92.7456 65.857C93.6226 65.5953 94.4775 65.3233 95.3076 65.0401C100.657 63.2193 104.918 60.9761 107.823 58.7061C110.781 56.3936 112.13 54.2164 112.13 52.5582C112.13 50.7681 110.655 48.4336 107.469 45.983ZM78.3394 7.84184C74.9663 9.12212 70.9556 11.5547 66.7563 15.1294C66.333 15.4893 65.9082 15.8604 65.4824 16.2422C65.1562 16.5342 64.8291 16.8326 64.502 17.1368C67.5449 20.4947 70.5767 24.3282 73.5386 28.5425C78.7295 29.0142 83.6611 29.751 88.1904 30.7403C88.3408 30.1026 88.478 29.4751 88.6016 28.858C89.7588 23.0772 89.9116 17.9048 89.1626 13.9126C88.4795 10.272 87.1494 8.13481 85.7769 7.34868C84.3115 6.50981 81.7686 6.54009 78.3394 7.84184ZM53.3628 15.7286C48.9097 11.878 44.4878 9.17632 40.6377 7.8145L40.5547 7.78569C37.0259 6.55278 34.4922 6.62602 33.1187 7.40923C31.6514 8.24614 30.4067 10.4419 29.8345 14.0323C29.2715 17.5625 29.3994 22.2154 30.4326 27.5997C30.6221 28.5801 30.8325 29.5562 31.0645 30.5279C35.5474 29.5928 40.4463 28.9078 45.6465 28.4751C48.6353 24.3428 51.7529 20.5157 54.9038 17.1109C54.3984 16.6416 53.8848 16.1807 53.3628 15.7286ZM31.1309 74.1509C30.9204 75.0313 30.7271 75.9156 30.5503 76.8033C29.4639 82.295 29.2915 87.0674 29.8228 90.6915C30.3638 94.3838 31.5933 96.6285 33.0425 97.4581C34.6055 98.3531 37.3843 98.2618 41.1255 96.7623C44.7998 95.2901 49.1602 92.5508 53.6699 88.5904C54.0249 88.2784 54.3809 87.9576 54.7383 87.628C51.6064 84.2408 48.5181 80.4429 45.5562 76.3355C40.5024 75.857 35.6455 75.1211 31.1309 74.1509ZM39.1484 66.629C38.9946 66.3736 38.8413 66.1182 38.689 65.8619C38.4609 65.479 38.2349 65.0953 38.0103 64.7105C37.8584 64.4498 37.707 64.1885 37.5566 63.9268C37.2251 63.3492 36.897 62.7696 36.5732 62.1875C36.4155 61.9048 36.2593 61.6216 36.104 61.3374C35.9399 61.0381 35.7769 60.7383 35.6147 60.438C34.626 62.8702 33.748 65.2652 32.9878 67.6016C35.4077 68.1109 37.9404 68.5508 40.5586 68.9165C40.0815 68.1582 39.6113 67.3956 39.1484 66.629ZM37.5674 40.9624C37.7212 40.6958 37.876 40.4302 38.0312 40.1646C38.6665 39.0791 39.3164 38.0015 39.9795 36.9327C40.2104 36.5606 40.4429 36.1895 40.6772 35.8194C37.9609 36.1626 35.3682 36.584 32.9204 37.0816C33.6992 39.4786 34.6025 41.9424 35.6216 44.4454C35.8813 43.9659 36.1436 43.4878 36.4082 43.0113C36.5972 42.6714 36.7871 42.3321 36.9785 41.9937C37.1733 41.649 37.3696 41.3052 37.5674 40.9624ZM75.9136 45.1114C75.7124 44.7574 75.5098 44.4043 75.3057 44.0518L75.0361 43.5899C74.3267 42.3707 73.6011 41.1612 72.8599 39.961C71.8374 38.3052 70.7847 36.668 69.7021 35.0499C66.3921 34.8267 62.9775 34.712 59.5 34.712C56.0361 34.712 52.6631 34.8135 49.4097 35.0127C47.4956 37.7974 45.6841 40.6499 43.9785 43.5645C42.2803 46.4649 40.6895 49.4253 39.209 52.44C40.625 55.3321 42.1421 58.1753 43.7568 60.9639L43.9644 61.3199C45.6558 64.2227 47.4536 67.0635 49.354 69.837C52.6719 70.0743 56.0684 70.1983 59.5005 70.1983C62.9473 70.1983 66.3477 70.0733 69.6646 69.834C71.5464 67.0655 73.3325 64.2344 75.021 61.3462C75.5859 60.3833 76.1401 59.4151 76.6841 58.4415C77.1343 57.6353 77.5776 56.8257 78.0142 56.0123C78.3721 55.3438 78.7256 54.6734 79.0742 54.0005C79.2295 53.7012 79.3838 53.4009 79.5376 53.1006L79.8394 52.5054C78.8306 50.4678 77.7749 48.4537 76.6724 46.4644C76.4219 46.0123 76.1689 45.5611 75.9136 45.1114ZM64.3682 87.6324C67.4531 84.2808 70.5161 80.4756 73.4805 76.3282C78.5469 75.8423 83.4072 75.0938 87.9302 74.104C88.0381 74.5665 88.1406 75.0298 88.2378 75.4942C89.4546 81.337 89.6763 86.4419 89.1309 90.3267C88.5752 94.2823 87.2666 96.7115 85.7012 97.6045C84.252 98.4312 81.6738 98.3643 78.1704 96.9844C74.7319 95.6304 70.6382 93.0997 66.3706 89.4263C65.6919 88.8404 65.0244 88.2427 64.3682 87.6324ZM24.272 39.3638C18.6357 41.2696 14.0347 43.7295 10.917 46.3692C8.07471 48.7774 6.87012 50.9869 6.87012 52.5582C6.87012 54.2359 8.17236 56.399 11.0298 58.6822C13.8398 60.9278 17.9775 63.1421 23.2085 64.9463C24.2363 65.2989 25.2715 65.6285 26.3145 65.9341C27.7168 61.5621 29.5 57.0225 31.6162 52.4375C29.4707 47.7803 27.6611 43.1661 26.2441 38.7374C25.583 38.9351 24.9258 39.1441 24.272 39.3638ZM83.4268 60.4058C82.6284 61.8638 81.8091 63.3106 80.9688 64.7457C80.624 65.3345 80.2759 65.9209 79.9238 66.5054C79.439 67.3091 78.9468 68.1089 78.4478 68.9043C81.0889 68.5303 83.6411 68.0782 86.0815 67.5538C85.3223 65.2388 84.4341 62.8482 83.4268 60.4058ZM54.561 76.9068C56.207 78.982 57.877 80.9419 59.5542 82.7701C61.208 80.9571 62.8638 78.9952 64.5054 76.9043C61.1914 77.0152 57.875 77.0157 54.561 76.9068ZM64.6553 28.004C63.0015 25.8536 61.3413 23.8477 59.687 22.0035C58.7983 22.9722 57.9106 23.9786 57.0269 25.0196C56.5869 25.5381 56.1479 26.065 55.7104 26.6001C55.3369 27.0572 54.9644 27.5201 54.5928 27.9883C56.2085 27.9444 57.8447 27.9219 59.5 27.9219C61.2339 27.9219 62.9536 27.9498 64.6553 28.004ZM86.3066 37.2842C85.5088 39.6592 84.5674 42.1236 83.4917 44.6568C82.6821 43.1582 81.8481 41.6724 80.9897 40.2007C80.7656 39.816 80.5405 39.4327 80.3135 39.0499C80.1406 38.7593 79.9673 38.4688 79.793 38.1792C79.3389 37.4239 78.8794 36.6719 78.4136 35.9234C81.1685 36.295 83.8086 36.75 86.3066 37.2842Z" fill="black"/>
</svg>
