<svg width="110" height="103" viewBox="0 0 110 103" fill="none" xmlns="http://www.w3.org/2000/svg">
<path d="M65.8246 63.6035C65.9559 65.5249 66.638 67.2686 67.7215 68.6338C63.2352 76.8354 56.4871 82.9399 46.3787 88.123C39.3905 91.7246 32.1776 92.9971 24.9725 92.1035C19.1644 91.3472 14.7845 88.8584 12.0448 84.853C7.95736 78.7441 7.5765 72.2134 11.0321 65.5957L11.037 65.5869C13.5008 60.7798 17.4163 57.208 19.8924 55.4282L20.6912 54.854L20.3993 53.9292C19.8617 52.2236 19.0594 49.3501 18.6639 47.292L18.2572 45.1753L16.4691 46.4385C-3.97281 60.8789 -1.98551 80.6108 4.38852 90.0791C9.21566 97.2139 18.8602 101.474 29.2948 101.474C32.1053 101.474 34.9378 101.201 37.7835 100.511C55.4085 97.1421 68.8631 86.999 76.6078 71.9429C80.9046 71.1333 84.0482 67.3706 83.8968 62.9351C83.7347 58.2021 79.7005 54.4302 74.8597 54.4302H74.5643L74.5414 54.4307C69.5282 54.5884 65.6615 58.6909 65.8221 63.5566L65.8231 63.5801L65.8246 63.6035Z" fill="black"/>
<path d="M57.1248 43.584H55.5409C54.0746 46.1514 51.2625 47.9648 48.0477 48.1074L48.016 48.1089H47.7118C42.8704 48.1089 38.8363 44.3369 38.6742 39.6035C38.5135 34.7363 42.3802 30.6338 47.3934 30.4761L47.4163 30.4756H47.7118C50.7972 30.4756 53.6204 32.0366 55.2088 34.4678H56.5789C74.4037 34.4678 90.0843 41.1309 100.744 53.3027C111.323 65.0049 111.712 78.9028 107.487 87.146L107.485 87.1504L107.483 87.1553C103.551 94.6831 93.3724 102.006 79.7708 102.006C73.8001 102.006 67.5965 100.482 61.5824 97.7539L59.4076 96.7671L61.3597 95.4072C63.2318 94.1025 65.9164 92.0063 67.3705 90.7168L68.0492 90.1152L68.8851 90.4819C71.4823 91.6221 76.4691 93.1567 81.6805 93.1567C89.6165 93.1567 95.5516 89.5806 99.1302 82.978C101.372 78.7197 101.534 73.6855 99.347 68.4165L99.3382 68.394C96.7249 61.7666 92.0164 56.2607 85.4124 52.0088C76.766 46.4287 67.2103 43.584 57.1248 43.584Z" fill="black"/>
<path fill-rule="evenodd" clip-rule="evenodd" d="M37.6078 63.8794L37.5164 63.8809C32.4246 55.2998 30.3246 45.9976 31.0985 35.9341V35.9282L31.099 35.9229C31.6268 28.1997 34.2577 21.5537 38.8372 16.0654L38.8455 16.0557L38.8534 16.0459C40.638 13.8247 43.3079 12.1152 46.2166 10.9419C49.1185 9.77197 52.1537 9.17822 54.5643 9.11572C61.1102 8.99707 65.87 12.8877 69.1244 17.9126C72.389 22.9536 73.9539 28.8838 74.1454 32.1826L74.2049 33.2046L75.2274 33.4351C75.9974 33.6084 77.0228 33.8901 78.1053 34.209C79.4105 34.5933 80.7982 35.0312 81.9207 35.396L83.9124 36.0435L83.7572 34.001C82.0799 11.9131 67.9901 0 53.9871 0C41.0174 0 29.2293 9.11133 24.5648 22.3374C18.2298 39.5435 22.2049 56.0508 29.7254 69.0918C29.3871 69.7588 29.1502 70.5244 29.0374 71.3247C28.9901 71.6606 28.9642 72.0024 28.9618 72.3452C28.9598 72.5786 28.9691 72.8125 28.9896 73.0459C29.1722 77.7607 33.1976 81.5122 38.0257 81.5122H38.3211L38.3436 81.5112C43.3573 81.3535 47.2235 77.2515 47.0628 72.3853C46.9012 67.6509 42.8665 63.8789 38.0257 63.8789H37.7381L37.6078 63.8794ZM37.6356 65.2437L37.5086 65.2456L37.4749 65.2466C37.575 65.2432 37.6703 65.2432 37.7528 65.2432L37.6356 65.2437ZM37.3026 65.2573C37.2684 65.2603 37.2337 65.2642 37.1996 65.2686L37.2157 65.2661L37.2679 65.2603L37.3026 65.2573Z" fill="black"/>
</svg>
