<svg width="100" height="98" viewBox="0 0 100 98" fill="none" xmlns="http://www.w3.org/2000/svg">
<path d="M52.7852 25.5791C53.04 25.9839 53.0591 26.4883 52.8364 26.9106L41.563 48.269L53.418 70.6958C53.6411 71.1182 53.6221 71.6226 53.3672 72.0273C53.1128 72.4326 52.6597 72.6797 52.1714 72.6797H43.5454C43.3701 72.6797 43.1997 72.6479 43.042 72.5889C42.9424 72.5518 42.8477 72.5034 42.7598 72.4453C42.5586 72.313 42.3921 72.1299 42.2827 71.9087L34.8994 57.0127L27.6035 71.9033C27.4819 72.1519 27.2886 72.353 27.0547 72.4883C26.8418 72.6113 26.5952 72.6797 26.3379 72.6797H18.3687C17.8823 72.6797 17.4307 72.4346 17.1753 72.0317C16.9199 71.6294 16.8979 71.127 17.1172 70.7051L28.6216 48.5332L17.5215 26.8965C17.3921 26.644 17.3486 26.3633 17.3892 26.0923C17.4165 25.9106 17.4819 25.7334 17.5845 25.5723C17.6826 25.418 17.8096 25.2871 17.9565 25.1846C18.1138 25.0747 18.2939 24.9966 18.4849 24.957C18.5796 24.9375 18.6772 24.9272 18.7764 24.9272H26.8408C27.0625 24.9272 27.2759 24.978 27.4668 25.0708C27.5708 25.1211 27.6675 25.1841 27.7554 25.2578C27.8091 25.3027 27.8594 25.3516 27.9058 25.4038C27.9834 25.4917 28.0498 25.5898 28.103 25.6968L35.3486 40.2744L42.4951 25.7036C42.7275 25.2295 43.2197 24.9272 43.7603 24.9272H51.5894C52.0776 24.9272 52.5308 25.1743 52.7852 25.5791Z" fill="black"/>
<path fill-rule="evenodd" clip-rule="evenodd" d="M71.8291 26.2891C71.8291 25.5371 72.4565 24.9272 73.2305 24.9272H80.9751C81.1978 24.9272 81.4082 24.9775 81.5952 25.0669C81.7271 25.1304 81.8472 25.2129 81.9517 25.3115C82.2139 25.5591 82.377 25.9058 82.377 26.2891V69.0518C82.377 69.3276 82.291 69.5933 82.1353 69.8164C82.0469 69.9429 81.9365 70.0552 81.8066 70.1479L80.9751 69.0518C81.8066 70.1479 81.8062 70.1484 81.8018 70.1514L81.7778 70.1685L81.7266 70.2031C81.6851 70.2305 81.6289 70.2671 81.5576 70.3115C81.4155 70.3999 81.2134 70.519 80.9502 70.6582C80.4243 70.936 79.6562 71.2939 78.6387 71.6475C76.6006 72.355 73.5767 73.04 69.5161 73.04C63.8721 73.04 59.5664 71.1084 56.6987 67.7642C53.8633 64.4575 52.5684 59.9277 52.5684 54.9395C52.5684 48.3936 55.0493 43.7056 58.6704 40.6724C62.2539 37.6709 66.8467 36.377 70.9746 36.377H71.8291V26.2891ZM71.8213 45.2559C71.5884 45.2183 71.2754 45.1885 70.8691 45.1885C70.1309 45.1885 68.1636 45.3643 66.418 46.5806C64.7583 47.7363 63.0713 49.9897 63.0713 54.603C63.0713 59.2881 64.5708 61.5718 66.0405 62.7256C67.5688 63.9253 69.3403 64.1221 70.2275 64.1221C70.9077 64.1221 71.4336 64.0786 71.8213 64.0259V45.2559Z" fill="black"/>
<path fill-rule="evenodd" clip-rule="evenodd" d="M0.147461 2.23291C0.147461 1.48096 0.774902 0.871094 1.54932 0.871094H97.7949C98.5693 0.871094 99.1968 1.48096 99.1968 2.23291V95.7349C99.1968 96.0581 99.0811 96.355 98.8872 96.5884C98.6304 96.8984 98.2363 97.0967 97.7949 97.0967H1.54932C0.774902 97.0967 0.147461 96.4868 0.147461 95.7349V2.23291ZM8.9043 88.5894H90.4399V9.37793H8.9043V88.5894Z" fill="black"/>
</svg>
