<svg width="55" height="52" viewBox="0 0 55 52" fill="none" xmlns="http://www.w3.org/2000/svg">
<path d="M50.5578 13.2739C48.1434 9.1904 44.8684 5.9575 40.732 3.57445C36.5949 1.19128 32.0785 0 27.1794 0C22.281 0 17.7631 1.19165 13.6269 3.57445C9.49011 5.95738 6.21523 9.1904 3.80082 13.2739C1.38677 17.3573 0.179688 21.8163 0.179688 26.651C0.179688 32.4585 1.89618 37.6808 5.33002 42.3191C8.76349 46.9578 13.199 50.1676 18.6363 51.9489C19.2692 52.0648 19.7377 51.9833 20.0423 51.7063C20.3471 51.4289 20.4993 51.0815 20.4993 50.6656C20.4993 50.5962 20.4933 49.9718 20.4816 48.7917C20.4695 47.6116 20.4638 46.5821 20.4638 45.7037L19.6552 45.8418C19.1396 45.935 18.4892 45.9745 17.704 45.9633C16.9192 45.9525 16.1044 45.8713 15.2608 45.7203C14.4168 45.5707 13.6319 45.2237 12.9052 44.68C12.179 44.1363 11.6634 43.4247 11.3587 42.5461L11.0071 41.7476C10.7728 41.2159 10.4039 40.6253 9.8999 39.978C9.39591 39.33 8.88626 38.8907 8.3707 38.6594L8.12455 38.4855C7.96054 38.3699 7.80834 38.2305 7.6676 38.0687C7.52698 37.9069 7.4217 37.745 7.35139 37.5829C7.28096 37.4206 7.33932 37.2875 7.5271 37.1831C7.71488 37.0787 8.05424 37.028 8.54665 37.028L9.24951 37.1317C9.71828 37.2245 10.2981 37.5015 10.9898 37.9644C11.681 38.427 12.2493 39.0285 12.6947 39.7684C13.234 40.7172 13.8838 41.4402 14.6459 41.9377C15.4073 42.4352 16.1751 42.6835 16.9483 42.6835C17.7216 42.6835 18.3895 42.6256 18.9522 42.5105C19.5143 42.3948 20.0417 42.2209 20.5341 41.9897C20.7451 40.439 21.3194 39.2477 22.2565 38.415C20.9208 38.2764 19.7199 38.0678 18.6531 37.7903C17.587 37.5124 16.4854 37.0615 15.3488 36.4362C14.2117 35.8118 13.2684 35.0365 12.5186 34.1115C11.7687 33.1861 11.1533 31.9711 10.6732 30.4677C10.1928 28.9636 9.9526 27.2287 9.9526 25.2623C9.9526 22.4625 10.8786 20.0799 12.7301 18.1133C11.8628 16.0083 11.9447 13.6486 12.976 11.0344C13.6557 10.8259 14.6637 10.9824 15.9995 11.5027C17.3355 12.0233 18.3137 12.4693 18.935 12.839C19.5563 13.2086 20.0542 13.5218 20.4292 13.7759C22.6093 13.1746 24.8591 12.8739 27.1792 12.8739C29.4993 12.8739 31.7496 13.1746 33.9298 13.7759L35.2657 12.9434C36.1792 12.3879 37.258 11.8789 38.4994 11.4162C39.7416 10.9537 40.6914 10.8263 41.348 11.0348C42.4023 13.6491 42.4962 16.0087 41.6286 18.1136C43.4801 20.0803 44.4064 22.4634 44.4064 25.2627C44.4064 27.2291 44.1653 28.9695 43.6857 30.4851C43.2055 32.0009 42.5848 33.2146 41.8233 34.1289C41.061 35.0431 40.1116 35.8123 38.9751 36.4366C37.8383 37.0613 36.7363 37.5123 35.6702 37.7901C34.6036 38.068 33.4026 38.2768 32.0669 38.4156C33.2852 39.4563 33.8944 41.099 33.8944 43.343V50.6646C33.8944 51.0806 34.041 51.4278 34.3343 51.7053C34.6272 51.9823 35.0898 52.0639 35.7227 51.9478C41.1607 50.1668 45.5963 46.9568 49.0296 42.3181C52.4626 37.6798 54.1797 32.4575 54.1797 26.65C54.1785 21.816 52.9708 17.3573 50.5578 13.2739Z" fill="white"/>
</svg>
