<svg width="54" height="54" viewBox="0 0 54 54" fill="none" xmlns="http://www.w3.org/2000/svg">
<path d="M27 0C12.0906 0 0 12.0906 0 27C0 41.9094 12.0906 54 27 54C41.9094 54 54 41.9094 54 27C54 12.0906 41.9094 0 27 0ZM19.1541 40.8164H12.5784V21.0332H19.1541V40.8164ZM15.8665 18.3318H15.8236C13.617 18.3318 12.1899 16.8128 12.1899 14.9144C12.1899 12.9731 13.6607 11.4961 15.9101 11.4961C18.1596 11.4961 19.5439 12.9731 19.5867 14.9144C19.5867 16.8128 18.1596 18.3318 15.8665 18.3318ZM42.8648 40.8164H36.2899V30.2329C36.2899 27.5731 35.3378 25.7591 32.9586 25.7591C31.1421 25.7591 30.0602 26.9827 29.5848 28.1639C29.4109 28.5866 29.3685 29.1774 29.3685 29.7686V40.8164H22.7932C22.7932 40.8164 22.8793 22.8892 22.7932 21.0332H29.3685V23.8343C30.2423 22.4863 31.8058 20.5689 35.2945 20.5689C39.6208 20.5689 42.8648 23.3963 42.8648 29.4727V40.8164Z" fill="white"/>
</svg>
